<svg width="24" height="24" viewBox="0 0 24 24" fill="none" xmlns="http://www.w3.org/2000/svg">
<path d="M6.17677 5.82323C6.65918 5.34082 7.44133 5.34082 7.92374 5.82323L17.8232 15.7227C18.3056 16.2051 18.3056 16.9873 17.8232 17.4697C17.3408 17.9521 16.5587 17.9521 16.0763 17.4697L6.17677 7.5702C5.69436 7.08779 5.69436 6.30564 6.17677 5.82323Z" fill="white"/>
<path d="M17.8232 5.82323C18.3056 6.30564 18.3056 7.08779 17.8232 7.5702L7.92374 17.4697C7.44132 17.9521 6.65918 17.9521 6.17677 17.4697C5.69435 16.9873 5.69435 16.2051 6.17677 15.7227L16.0763 5.82323C16.5587 5.34082 17.3408 5.34082 17.8232 5.82323Z" fill="white"/>
</svg>
